# xmcd
#
# Track frame offsets:
#	150
#	12292
#	25388
#	36177
#	48428
#	60144
#	72032
#	83919
#	94938
#	106596
#
# Disc length: 1584 seconds
#
# Revision: 1
# Processed by: cddbd v1.5.2PL0 Copyright (c) Steve Scherf et al.
# Submitted via: audiograbber 1.83.01
#
DISCID=70062e0a
DTITLE=Hank Williams - Disk 1 of 3
DYEAR=1900
DGENRE=
TTITLE0=Your Cheatin' Heart
TTITLE1=Hey, Good Lookin'
TTITLE2=Moanin' the Blues
TTITLE3=Cold, Cold Heart
TTITLE4=You Win Again
TTITLE5=Take These Chains From My Heart
TTITLE6=Long Gone Lonesome Blues
TTITLE7=I'll Never Get Out of This World
TTITLE8=Dear John
TTITLE9=Move It on Over
EXTD=
EXTT0=
EXTT1=
EXTT2=
EXTT3=
EXTT4=
EXTT5=
EXTT6=
EXTT7=
EXTT8=
EXTT9=
PLAYORDER=
